#!OML:ASF F:\VICON\USERDATA\INSTALL\rory3\rory3.ASF
:FULLY-SPECIFIED
:DEGREES
16
root -1.04975 18.1761 -0.830999 179.645 6.08855 177.194
lowerback 27.913 -0.91489 -1.25602
upperback 4.66034 0.32692 5.15128
thorax -10.2679 0.819496 6.38119
lowerneck -10.0737 -2.63661 -3.80685
upperneck 27.8226 3.01251 -11.1379
head 10.8371 0.661262 -2.83067
rclavicle 1.59028e-014 -1.74931e-014
rhumerus -9.4804 -25.699 -55.0803
rradius 92.1286
rwrist 1.70461
rhand -5.17372 4.12916
rfingers 7.12502
rthumb 20.6265 -24.7949
lclavicle 1.59028e-014 -1.74931e-014
lhumerus -43.9369 1.16369 85.9043
lradius 60.1692
lwrist 12.8341
lhand -10.9636 52.1171
lfingers 7.12502
lthumb 15.0556 81.5496
rfemur -21.0723 1.66009 16.2628
rtibia 35.5474
rfoot -8.63066 -6.12382
rtoes 0.668901
lfemur -11.2856 -3.11187 -18.5935
ltibia 41.7233
lfoot -11.3088 1.1805
ltoes -22.6739
17
root -1.08712 18.1702 -0.762417 179.674 6.44557 176.756
lowerback 28.1471 -0.862219 -1.68273
upperback 4.87518 0.290781 5.08027
thorax -10.1319 0.82177 6.56296
lowerneck -10.6439 -2.51498 -3.63844
upperneck 27.8273 3.21808 -11.3542
head 10.9699 0.713213 -2.92207
rclavicle 3.97569e-015 0
rhumerus -8.41411 -22.6662 -56.7965
rradius 91.4166
rwrist 4.64896
rhand -6.98233 4.66275
rfingers 7.12502
rthumb 18.8878 -24.4402
lclavicle 3.97569e-015 0
lhumerus -43.12 0.676206 86.286
lradius 60.0333
lwrist 12.323
lhand -10.6228 52.3539
lfingers 7.12502
lthumb 15.3838 81.7616
rfemur -21.5598 1.46102 15.6604
rtibia 35.6339
rfoot -8.21318 -5.50419
rtoes -1.71026
lfemur -11.1866 -3.17602 -19.0062
ltibia 42.0433
lfoot -11.2628 0.521557
ltoes -21.98
18
root -1.12365 18.1591 -0.689877 179.822 6.73972 176.687
lowerback 28.1019 -0.905234 -1.76225
upperback 5.20633 0.262443 5.0931
thorax -9.72464 0.817985 6.6202
lowerneck -10.9848 -2.34696 -3.6038
upperneck 27.4876 3.34763 -11.3841
head 10.9165 0.743317 -2.92019
rclavicle -4.29375e-014 4.92986e-014
rhumerus -7.3882 -19.6754 -58.4269
rradius 90.3742
rwrist 7.23638
rhand -8.8671 5.14805
rfingers 7.12502
rthumb 17.0744 -24.1216
lclavicle -4.29375e-014 4.92986e-014
lhumerus -42.0092 0.229589 86.607
lradius 59.784
lwrist 11.5206
lhand -9.95299 52.5209
lfingers 7.12502
lthumb 16.0289 81.8779
rfemur -22.1265 1.38376 15.4717
rtibia 35.7061
rfoot -8.00042 -5.17284
rtoes 0.847562
lfemur -11.2376 -3.32713 -18.9816
ltibia 42.386
lfoot -11.2922 0.0894257
ltoes -21.5146
19
root -1.15567 18.1502 -0.626044 179.978 7.05008 176.882
lowerback 28.2835 -0.847814 -1.4841
upperback 5.40832 0.453664 5.04253
thorax -9.61108 0.909984 6.3255
lowerneck -11.4808 -2.32993 -3.35489
upperneck 27.3545 3.18668 -11.2417
head 10.9494 0.664864 -2.9366
rclavicle 1.98785e-014 -4.77083e-015
rhumerus -6.76198 -17.0216 -59.8594
rradius 88.8525
rwrist 9.28248
rhand -10.9615 5.73228
rfingers 7.12502
rthumb 15.0576 -23.7001
lclavicle 1.98785e-014 -4.77083e-015
lhumerus -41.1484 -0.787113 86.9454
lradius 59.587
lwrist 11.0419
lhand -10.0839 51.8669
lfingers 7.12502
lthumb 15.9029 81.234
rfemur -22.6268 1.45026 15.5716
rtibia 35.8045
rfoot -8.22299 -5.0255
rtoes 8.82734
lfemur -11.2428 -3.4051 -18.6612
ltibia 42.76
lfoot -11.3384 -0.222779
ltoes -22.6831
20
root -1.19011 18.1438 -0.560482 180.137 7.40315 176.996
lowerback 28.5563 -0.85846 -1.51869
upperback 5.25846 0.432054 5.13745
thorax -9.91767 0.905661 6.47698
lowerneck -10.8077 -2.19356 -3.51883
upperneck 26.9267 3.33248 -11.3144
head 10.6632 0.749306 -2.89758
rclavicle 3.18055e-015 4.77083e-014
rhumerus -6.29095 -13.4654 -61.0713
rradius 86.7569
rwrist 10.8569
rhand -13.3392 6.3305
rfingers 7.12502
rthumb 12.7662 -23.2592
lclavicle 3.18055e-015 4.77083e-014
lhumerus -41.2011 -1.0978 87.4067
lradius 59.6228
lwrist 11.0956
lhand -10.6856 51.1866
lfingers 7.12502
lthumb 15.3233 80.5989
rfemur -23.0977 1.48 15.5909
rtibia 35.7748
rfoot -8.12669 -4.66179
rtoes 9.77064
lfemur -11.1994 -3.40482 -18.4565
ltibia 43.0331
lfoot -11.3689 -0.525144
ltoes -24.6141
21
root -1.22569 18.125 -0.483504 180.335 7.65324 176.887
lowerback 28.7707 -0.755665 -1.62156
upperback 5.04567 0.49933 5.11675
thorax -10.2784 0.936069 6.50426
lowerneck -9.71067 -2.18382 -3.57389
upperneck 26.4878 3.24966 -11.3465
head 10.2765 0.770423 -2.88687
rclavicle -3.73715e-014 2.54444e-014
rhumerus -6.13305 -10.572 -62.2035
rradius 84.1219
rwrist 12.4342
rhand -15.6647 7.53772
rfingers 7.12502
rthumb 10.5236 -22.1788
lclavicle -3.73715e-014 2.54444e-014
lhumerus -41.3293 -1.89996 87.9351
lradius 59.861
lwrist 11.4485
lhand -11.4636 50.5757
lfingers 7.12502
lthumb 14.5739 80.0437
rfemur -23.7307 1.48997 15.3611
rtibia 35.7381
rfoot -7.3663 -4.24049
rtoes 5.00759
lfemur -11.3068 -3.48163 -18.47
ltibia 43.2161
lfoot -11.165 -0.793397
ltoes -24.2605
22
root -1.25903 18.1371 -0.406551 180.565 7.95378 176.854
lowerback 28.9109 -0.730515 -1.78816
upperback 5.32 0.521374 5.08118
thorax -10.0342 0.959712 6.54663
lowerneck -10.7541 -2.06694 -3.34362
upperneck 26.6602 3.40334 -11.3834
head 10.5561 0.787206 -2.93868
rclavicle 3.73715e-014 9.22361e-014
rhumerus -4.70235 -8.31892 -63.7452
rradius 80.8263
rwrist 14.2409
rhand -17.4036 9.05309
rfingers 7.12502
rthumb 8.84585 -20.7415
lclavicle 3.73715e-014 9.22361e-014
lhumerus -40.4126 -2.33904 88.2184
lradius 60.1101
lwrist 11.5285
lhand -11.8112 50.7401
lfingers 7.12502
lthumb 14.2389 80.232
rfemur -24.3081 1.78787 15.213
rtibia 35.6132
rfoot -7.25771 -4.32415
rtoes 9.45585
lfemur -11.3408 -3.47005 -18.3911
ltibia 43.1647
lfoot -10.7576 -0.948387
ltoes -23.4856
23
root -1.29187 18.1311 -0.337625 180.743 8.3272 176.888
lowerback 28.889 -0.64885 -1.85526
upperback 5.56637 0.629619 5.02227
thorax -9.75306 1.01413 6.46879
lowerneck -11.6234 -2.05164 -3.24382
upperneck 26.9622 3.37783 -11.1513
head 10.8352 0.744303 -2.89389
rclavicle -4.92986e-014 -3.18055e-014
rhumerus -3.39044 -6.35973 -65.1181
rradius 77.2125
rwrist 15.9717
rhand -18.815 10.2609
rfingers 7.12502
rthumb 7.48372 -19.5867
lclavicle -4.92986e-014 -3.18055e-014
lhumerus -39.475 -2.99401 88.5365
lradius 60.101
lwrist 10.9503
lhand -11.7964 50.8733
lfingers 7.12502
lthumb 14.2532 80.3642
rfemur -24.7713 2.14875 15.135
rtibia 35.4665
rfoot -6.48039 -4.11797
rtoes 4.62093
lfemur -11.1723 -3.43138 -18.2628
ltibia 42.966
lfoot -10.3892 -1.03863
ltoes -23.0996
24
root -1.32286 18.1239 -0.272182 180.989 8.70449 176.957
lowerback 28.4403 -0.542777 -1.92425
upperback 5.9817 0.778221 4.96935
thorax -9.0724 1.08157 6.37143
lowerneck -12.3667 -2.09326 -3.34512
upperneck 27.1502 3.21928 -10.7254
head 11.0361 0.647911 -2.75675
rclavicle 2.78299e-014 3.33958e-014
rhumerus -1.92884 -4.52481 -66.421
rradius 73.3602
rwrist 17.0575
rhand -20.5599 11.2138
rfingers 7.12502
rthumb 5.79929 -18.6869
lclavicle 2.78299e-014 3.33958e-014
lhumerus -38.0736 -3.74991 88.788
lradius 60.0309
lwrist 11.1243
lhand -11.847 50.9513
lfingers 7.12502
lthumb 14.2044 80.4456
rfemur -25.1912 2.45979 15.0967
rtibia 35.1683
rfoot -6.41848 -4.17997
rtoes 9.67296
lfemur -10.9484 -3.39846 -18.0889
ltibia 42.5308
lfoot -9.9979 -1.11735
ltoes -22.8882
25
root -1.35852 18.1275 -0.206594 181.186 9.05707 177.033
lowerback 29.1091 -0.374619 -2.09977
upperback 5.60218 0.908839 5.01967
thorax -9.85793 1.15267 6.51251
lowerneck -11.619 -2.00521 -3.04503
upperneck 26.9427 3.36961 -11.143
head 10.8241 0.753429 -2.92706
rclavicle -5.00937e-014 -5.56597e-014
rhumerus -1.85334 -1.82413 -67.1882
rradius 69.7449
rwrist 17.4477
rhand -22.13 12.5517
rfingers 7.12502
rthumb 4.28326 -17.385
lclavicle -5.00937e-014 -5.56597e-014
lhumerus -38.0285 -4.27499 89.2833
lradius 59.9353
lwrist 11.3068
lhand -12.3869 50.6714
lfingers 7.12502
lthumb 13.6842 80.2015
rfemur -25.5647 2.82451 15.0496
rtibia 34.8974
rfoot -6.21621 -4.13451
rtoes 10.1494
lfemur -10.6156 -3.51631 -17.9503
ltibia 41.9434
lfoot -9.44874 -0.955828
ltoes -23.2869
26
root -1.39634 18.1323 -0.140364 181.389 9.40497 177.154
lowerback 29.3296 -0.224065 -2.10489
upperback 5.48855 1.0899 5.04271
thorax -10.1234 1.23891 6.48333
lowerneck -11.4762 -2.11877 -3.45073
upperneck 27.1699 3.21088 -10.6883
head 10.8629 0.691064 -2.71516
rclavicle -2.38542e-014 -6.20208e-014
rhumerus -1.47906 0.257419 -67.7802
rradius 66.0863
rwrist 18.2286
rhand -22.6388 13.4514
rfingers 7.12502
rthumb 3.79196 -16.4946
lclavicle -2.38542e-014 -6.20208e-014
lhumerus -37.5692 -4.93534 89.7522
lradius 59.9127
lwrist 11.428
lhand -12.43 50.9076
lfingers 7.12502
lthumb 13.6426 80.4405
rfemur -25.9439 3.17603 15.0478
rtibia 34.6513
rfoot -5.61482 -4.03307
rtoes 7.6958
lfemur -10.2353 -3.66503 -17.7862
ltibia 41.2022
lfoot -8.64483 -0.850613
ltoes -24.1756
27
root -1.43376 18.1236 -0.0640755 181.763 9.82024 177.232
lowerback 28.9695 -0.0242101 -2.17072
upperback 5.79874 1.35184 5.02524
thorax -9.62172 1.35891 6.38957
lowerneck -12.1411 -2.17029 -3.42402
upperneck 27.0477 3.06244 -10.6329
head 10.941 0.586448 -2.72509
rclavicle 1.11319e-014 -5.08889e-014
rhumerus 0.124453 1.52456 -68.4756
rradius 61.9643
rwrist 19.6496
rhand -22.3034 12.6518
rfingers 7.12502
rthumb 4.11576 -17.2882
lclavicle 1.11319e-014 -5.08889e-014
lhumerus -36.2093 -5.71025 90.0986
lradius 59.9228
lwrist 11.7108
lhand -12.2226 51.2625
lfingers 7.12502
lthumb 13.8425 80.7819
rfemur -26.6179 3.47526 15.0031
rtibia 34.4422
rfoot -4.8222 -3.72387
rtoes 4.322
lfemur -10.0456 -3.76609 -17.6456
ltibia 40.2779
lfoot -8.16169 -1.04418
ltoes -25.5982
28
root -1.47291 18.1066 0.0173206 182.097 10.1753 177.311
lowerback 29.9936 0.255519 -2.27222
upperback 4.84164 1.61055 5.28242
thorax -10.636 1.43412 6.19437
lowerneck -11.5993 -2.27938 -3.64307
upperneck 27.4205 3.04541 -10.5259
head 10.9722 0.606341 -2.65078
rclavicle -7.15625e-015 -7.15625e-014
rhumerus 0.719304 3.25659 -69.1933
rradius 57.4868
rwrist 21.1082
rhand -21.8108 11.8668
rfingers 7.12502
rthumb 4.59144 -18.0635
lclavicle -7.15625e-015 -7.15625e-014
lhumerus -36.4073 -6.46093 90.6868
lradius 59.9736
lwrist 12.1698
lhand -12.7632 50.8285
lfingers 7.12502
lthumb 13.3215 80.3827
rfemur -27.2804 3.72228 14.9564
rtibia 34.2637
rfoot -4.68279 -3.64863
rtoes 6.39416
lfemur -9.81705 -3.93369 -17.5038
ltibia 39.1937
lfoot -8.54734 -1.55698
ltoes -27.5521
29
root -1.51521 18.0927 0.092395 182.31 10.5635 177.51
lowerback 30.4963 0.446404 -2.24147
upperback 4.63771 1.8509 5.27667
thorax -11.1084 1.54615 6.07905
lowerneck -11.424 -2.24063 -3.63494
upperneck 27.3258 3.09025 -10.5619
head 10.9039 0.635215 -2.65511
rclavicle 1.74931e-014 5.88403e-014
rhumerus 2.22681 4.21163 -70.1246
rradius 52.4324
rwrist 22.9446
rhand -21.4722 12.5089
rfingers 7.12502
rthumb 4.91843 -17.414
lclavicle 1.74931e-014 5.88403e-014
lhumerus -35.7851 -7.02972 91.0322
lradius 59.8225
lwrist 11.9454
lhand -12.8234 50.433
lfingers 7.12502
lthumb 13.2634 79.991
rfemur -27.7646 4.10395 15.0166
rtibia 34.1257
rfoot -3.84496 -3.3159
rtoes 1.99731
lfemur -9.34375 -4.21964 -17.3306
ltibia 37.9719
lfoot -9.80113 -1.72259
ltoes -31.1778
30
root -1.55648 18.0843 0.171455 182.622 10.9933 177.735
lowerback 30.2895 0.652194 -2.10595
upperback 4.98529 2.17862 5.15956
thorax -10.659 1.69556 5.75215
lowerneck -12.026 -2.2438 -3.482
upperneck 27.0827 2.89067 -10.3804
head 10.9155 0.530917 -2.64469
rclavicle -8.74653e-015 2.22639e-014
rhumerus 4.3711 4.16991 -71.0052
rradius 47.6369
rwrist 24.6301
rhand -20.4086 12.9101
rfingers 7.12502
rthumb 5.94531 -16.9865
lclavicle -8.74653e-015 2.22639e-014
lhumerus -34.1824 -7.82857 91.1655
lradius 59.6177
lwrist 11.4604
lhand -12.1903 50.5837
lfingers 7.12502
lthumb 13.8736 80.1009
rfemur -28.409 4.43895 15.1211
rtibia 34.0023
rfoot -3.25607 -3.18301
rtoes 0.813307
lfemur -9.02963 -4.49717 -17.1513
ltibia 36.6825
lfoot -10.9372 -1.36277
ltoes -33.2899
